<svg width="1012" height="1035" viewBox="0 0 1012 1035" fill="none" xmlns="http://www.w3.org/2000/svg">
<ellipse cx="506" cy="374.5" rx="506" ry="374.5" fill="#B2AFDA"/>
<path d="M32 972.535H919V970.535H32C31.4477 970.535 31 970.983 31 971.535C31 972.087 31.4477 972.535 32 972.535Z" fill="#3F3D56"/>
<path d="M437 989.535C442 1013.53 470.5 984.035 470.5 984.035L504.5 980.035C504.5 980.035 526 980.535 540 991.535C554 1002.53 563.5 988.035 563.5 988.035C579.273 993.292 598.597 993.271 615.333 991.587C639.449 989.161 658.779 970.547 662.093 946.537C680.79 811.095 578 744.535 578 744.535L548 663.535C548 663.535 557.5 640.035 560.5 619.035C563.5 598.035 541.5 578.035 514.5 558.035C502.687 549.285 489.152 549.914 477.663 553.39C464.774 557.289 453.531 565.308 445.223 575.906C438.341 584.686 426.536 597.121 413.56 599.275C409.07 600.015 404.64 601.795 400.5 605.035C396.22 608.385 394.33 613.975 394.27 620.925C393.95 651.285 419.02 687.835 441 693.535C468 700.535 453.5 767.035 453.5 767.035C409.5 829.035 440.5 898.035 440.5 898.035L432.5 954.035C432.5 954.035 432 965.535 437 989.535L437 989.535V989.535Z" fill="#3F3D56"/>
<path d="M584 860.535L573 997.535C573 997.535 588 1035.53 537 1033.53C486 1031.53 516 953.535 516 953.535L532 851.535" fill="#3F3D56"/>
<path d="M540.795 1034.61C539.548 1034.61 538.271 1034.59 536.961 1034.53C525.671 1034.09 517.357 1029.93 512.25 1022.18C497.647 999.994 513.889 956.269 515.028 953.276L531.012 851.38C531.098 850.834 531.605 850.466 532.155 850.547C532.7 850.632 533.073 851.144 532.988 851.69L516.988 953.69C516.977 953.759 516.959 953.828 516.934 953.894C516.759 954.346 499.682 999.45 513.922 1021.08C518.654 1028.26 526.432 1032.12 537.039 1032.54C553.691 1033.19 564.892 1029.63 570.337 1021.97C577.461 1011.94 572.124 998.041 572.069 997.901C572.014 997.759 571.991 997.606 572.003 997.455L583.003 860.455C583.047 859.905 583.52 859.504 584.08 859.538C584.631 859.583 585.041 860.064 584.997 860.615L574.015 997.39C574.741 999.351 579.297 1012.79 571.976 1023.11C566.559 1030.75 556.077 1034.61 540.795 1034.61V1034.61Z" fill="#2F2E41"/>
<path d="M493 888.535C493 888.535 496 1015.53 433 1012.53C370 1009.53 427 969.535 427 969.535L432.5 954.035" fill="#3F3D56"/>
<path d="M435.162 1013.59C434.431 1013.59 433.695 1013.57 432.952 1013.53C414.964 1012.68 404.8 1008.65 402.744 1001.56C399.04 988.776 423.184 971.034 426.163 968.902L431.558 953.701C431.742 953.179 432.313 952.908 432.834 953.092C433.354 953.277 433.627 953.848 433.442 954.369L427.942 969.869C427.873 970.065 427.744 970.234 427.574 970.353C427.311 970.539 401.197 989.038 404.666 1001C406.458 1007.18 416.007 1010.72 433.048 1011.54C444.396 1012.08 454.345 1008.27 462.599 1000.21C493.551 969.991 492.02 889.369 492 888.558C491.987 888.006 492.424 887.548 492.977 887.535C493.499 887.536 493.986 887.96 494 888.511C494.079 891.857 495.572 970.809 463.997 1001.64C455.869 1009.57 446.177 1013.59 435.162 1013.59V1013.59Z" fill="#2F2E41"/>
<path d="M394.27 620.925C401.45 621.785 412.69 621.745 422 615.535C431.97 608.885 421.62 602.685 413.56 599.275C409.07 600.015 404.64 601.795 400.5 605.035C396.22 608.385 394.33 613.975 394.27 620.925Z" fill="#2F2E41"/>
<path d="M510.298 602.944C510.298 602.944 492.849 558.128 517.841 557.5C542.833 556.873 562.573 595.71 562.573 595.71C562.573 595.71 625.301 710.053 539.36 703.887C453.418 697.721 494.486 652.076 494.486 652.076C494.486 652.076 514.088 627.977 510.298 602.944H510.298V602.944V602.944Z" fill="#2F2E41"/>
<path d="M606.039 937.851C617.106 942.774 628.67 947.799 640.774 947.318C652.878 946.837 665.616 939.042 667.502 927.077C668.476 920.9 666.545 914.273 668.91 908.484C672.092 900.695 682.356 897.692 690.335 900.361C698.314 903.03 704.176 909.913 708.379 917.201C716.242 930.838 719.393 948.736 710.962 962.029C703.653 973.553 689.791 978.76 676.897 983.227C659.722 989.176 640.546 995.081 623.903 987.773C607.165 980.423 598.047 959.188 604.245 941.991" fill="#3F3D56"/>
<path d="M569.114 721.921C569.114 721.921 591.114 732.921 580.114 744.921C569.114 756.921 501.114 790.921 476.114 785.921C451.114 780.921 445.114 765.921 445.114 761.921C445.114 757.921 447 709.535 455 711.535C463 713.535 513.114 758.921 569.114 721.921Z" fill="#6C63FF"/>
<path d="M423.211 207.056L440.427 213.392L419.435 264.208H463.723V279.376H398.571V265.936L423.211 207.056ZM454.827 242.832V298H435.435L435.179 266.256L437.739 242.832H454.827ZM508.025 207.056C518.606 207.056 526.585 211.152 531.961 219.344C537.38 227.493 540.089 238.864 540.089 253.456C540.089 268.091 537.38 279.547 531.961 287.824C526.585 296.059 518.606 300.176 508.025 300.176C497.358 300.176 489.337 296.059 483.961 287.824C478.628 279.547 475.961 268.091 475.961 253.456C475.961 238.864 478.628 227.493 483.961 219.344C489.337 211.152 497.358 207.056 508.025 207.056ZM508.025 221.712C503.502 221.712 500.196 224.144 498.105 229.008C496.014 233.829 494.969 241.979 494.969 253.456C494.969 260.112 495.161 265.552 495.545 269.776C495.972 273.957 496.676 277.2 497.657 279.504C498.638 281.808 499.961 283.408 501.625 284.304C503.332 285.157 505.465 285.584 508.025 285.584C511.054 285.584 513.508 284.56 515.385 282.512C517.305 280.464 518.713 277.093 519.609 272.4C520.505 267.664 520.953 261.349 520.953 253.456C520.953 244.752 520.569 238.117 519.801 233.552C519.033 228.987 517.71 225.872 515.833 224.208C513.998 222.544 511.396 221.712 508.025 221.712ZM518.073 224.528L523.257 235.6L499.577 284.496L493.753 275.408L518.073 224.528ZM576.711 207.056L593.927 213.392L572.935 264.208H617.223V279.376H552.071V265.936L576.711 207.056ZM608.327 242.832V298H588.935L588.679 266.256L591.239 242.832H608.327ZM245.672 466L222.312 394.64C222.611 396.56 222.931 398.885 223.272 401.616C223.656 404.304 224.019 407.312 224.36 410.64C224.701 413.925 224.979 417.424 225.192 421.136C225.405 424.848 225.512 428.645 225.512 432.528V466H207.656V377.296H233.832L256.488 448.272C256.019 445.584 255.528 442.384 255.016 438.672C254.547 434.917 254.141 430.736 253.8 426.128C253.459 421.52 253.288 416.571 253.288 411.28V377.296H271.144V466H245.672ZM316.15 395.792C323.147 395.792 329.099 397.285 334.006 400.272C338.913 403.259 342.667 407.461 345.27 412.88C347.873 418.256 349.174 424.571 349.174 431.824C349.174 439.376 347.851 445.883 345.206 451.344C342.603 456.763 338.849 460.923 333.942 463.824C329.035 466.725 323.105 468.176 316.15 468.176C309.238 468.176 303.307 466.747 298.358 463.888C293.451 461.029 289.675 456.891 287.03 451.472C284.427 446.053 283.126 439.547 283.126 431.952C283.126 424.741 284.427 418.427 287.03 413.008C289.675 407.589 293.451 403.365 298.358 400.336C303.307 397.307 309.238 395.792 316.15 395.792ZM316.15 410.704C312.011 410.704 308.939 412.411 306.934 415.824C304.971 419.195 303.99 424.571 303.99 431.952C303.99 439.461 304.971 444.901 306.934 448.272C308.939 451.643 312.011 453.328 316.15 453.328C320.289 453.328 323.339 451.643 325.302 448.272C327.307 444.901 328.31 439.419 328.31 431.824C328.31 424.485 327.307 419.131 325.302 415.76C323.339 412.389 320.289 410.704 316.15 410.704ZM424.644 462.032C421.999 463.739 418.799 465.189 415.044 466.384C411.289 467.579 407.065 468.176 402.372 468.176C393.497 468.176 386.905 465.915 382.596 461.392C378.287 456.827 376.132 450.64 376.132 442.832V411.984H361.86V398.032H376.132V383.312L396.356 380.88V398.032H418.244L416.26 411.984H396.356V442.832C396.356 446.203 397.124 448.613 398.66 450.064C400.196 451.515 402.649 452.24 406.02 452.24C408.409 452.24 410.585 451.963 412.548 451.408C414.553 450.811 416.345 450.064 417.924 449.168L424.644 462.032ZM466.13 392.272V415.76H497.234V430.8H466.13V466H445.074V377.296H503.378L501.202 392.272H466.13ZM546.4 395.792C553.397 395.792 559.349 397.285 564.256 400.272C569.163 403.259 572.917 407.461 575.52 412.88C578.123 418.256 579.424 424.571 579.424 431.824C579.424 439.376 578.101 445.883 575.456 451.344C572.853 456.763 569.099 460.923 564.192 463.824C559.285 466.725 553.355 468.176 546.4 468.176C539.488 468.176 533.557 466.747 528.608 463.888C523.701 461.029 519.925 456.891 517.28 451.472C514.677 446.053 513.376 439.547 513.376 431.952C513.376 424.741 514.677 418.427 517.28 413.008C519.925 407.589 523.701 403.365 528.608 400.336C533.557 397.307 539.488 395.792 546.4 395.792ZM546.4 410.704C542.261 410.704 539.189 412.411 537.184 415.824C535.221 419.195 534.24 424.571 534.24 431.952C534.24 439.461 535.221 444.901 537.184 448.272C539.189 451.643 542.261 453.328 546.4 453.328C550.539 453.328 553.589 451.643 555.552 448.272C557.557 444.901 558.56 439.419 558.56 431.824C558.56 424.485 557.557 419.131 555.552 415.76C553.589 412.389 550.539 410.704 546.4 410.704ZM613.934 398.032V444.56C613.934 447.845 614.531 450.107 615.726 451.344C616.963 452.581 618.67 453.2 620.846 453.2C622.937 453.2 625.027 452.539 627.118 451.216C629.209 449.893 630.958 448.101 632.366 445.84V398.032H652.59V466H634.926L634.03 458.064C631.726 461.392 628.697 463.909 624.942 465.616C621.187 467.323 617.262 468.176 613.166 468.176C606.595 468.176 601.71 466.277 598.51 462.48C595.31 458.64 593.71 453.499 593.71 447.056V398.032H613.934ZM670.46 466V398.032H688.124L689.532 405.904C692.561 402.491 695.761 399.952 699.132 398.288C702.503 396.624 706.343 395.792 710.652 395.792C716.455 395.792 721.02 397.563 724.348 401.104C727.676 404.645 729.34 409.637 729.34 416.08V466H709.116V421.904C709.116 419.131 708.924 416.933 708.54 415.312C708.156 413.648 707.473 412.475 706.492 411.792C705.553 411.067 704.252 410.704 702.588 410.704C701.18 410.704 699.793 411.024 698.428 411.664C697.105 412.261 695.804 413.136 694.524 414.288C693.244 415.44 691.964 416.827 690.684 418.448V466H670.46ZM785.866 368.912L806.09 371.024V466H788.17L787.146 458.512C785.269 461.157 782.773 463.44 779.658 465.36C776.543 467.237 772.767 468.176 768.33 468.176C762.698 468.176 758.026 466.661 754.314 463.632C750.645 460.603 747.893 456.379 746.058 450.96C744.266 445.499 743.37 439.12 743.37 431.824C743.37 424.827 744.458 418.619 746.634 413.2C748.81 407.781 751.925 403.536 755.978 400.464C760.031 397.349 764.853 395.792 770.442 395.792C773.471 395.792 776.287 396.325 778.89 397.392C781.493 398.459 783.818 400.016 785.866 402.064V368.912ZM775.882 410.576C772.383 410.576 769.567 412.24 767.434 415.568C765.301 418.853 764.234 424.315 764.234 431.952C764.234 437.541 764.682 441.893 765.578 445.008C766.474 448.08 767.711 450.235 769.29 451.472C770.869 452.709 772.682 453.328 774.73 453.328C776.991 453.328 779.039 452.624 780.874 451.216C782.751 449.808 784.415 447.888 785.866 445.456V416.144C784.458 414.395 782.965 413.029 781.386 412.048C779.807 411.067 777.973 410.576 775.882 410.576Z" fill="#F4F4F4"/>
</svg>
